<svg preserveAspectRatio="none" width="100%" height="100%" overflow="visible" style="display: block;" viewBox="0 0 27.7705 27.7705" fill="none" xmlns="http://www.w3.org/2000/svg">
<g id="Key">
<path id="Subtract" d="M20.3438 0C24.4455 0 27.7703 3.32504 27.7705 7.42676V20.3438C27.7705 24.4456 24.4456 27.7705 20.3438 27.7705H7.42676C3.32504 27.7703 0 24.4455 0 20.3438V7.42676C0.000176165 3.32515 3.32515 0.000176161 7.42676 0H20.3438ZM20.9893 10.9795C20.4543 10.9796 20.0205 11.4133 20.0205 11.9482V13.5625H18.7295V11.9482C18.7295 11.4133 18.2956 10.9797 17.7607 10.9795C17.2257 10.9795 16.792 11.4132 16.792 11.9482V13.5625H12.7812C12.3595 12.0721 10.9907 10.9798 9.36523 10.9795C7.40358 10.9795 5.81268 12.5696 5.8125 14.5312C5.81263 16.4929 7.40355 18.084 9.36523 18.084C10.9906 18.0837 12.3594 16.9905 12.7812 15.5H20.9902C21.5249 15.4996 21.9589 15.0659 21.959 14.5312C21.959 14.5245 21.9581 14.5175 21.958 14.5107V11.9482C21.958 11.4132 21.5243 10.9795 20.9893 10.9795ZM9.36523 12.917C10.2565 12.9174 10.9793 13.6399 10.9795 14.5312C10.9794 15.4226 10.2565 16.1461 9.36523 16.1465C8.47361 16.1465 7.75013 15.4228 7.75 14.5312C7.75018 13.6397 8.47363 12.917 9.36523 12.917Z" fill="var(--fill-0, #E153B9)"/>
</g>
</svg>
