<svg preserveAspectRatio="none" width="100%" height="100%" overflow="visible" style="display: block;" viewBox="0 0 30.7385 30.7382" fill="none" xmlns="http://www.w3.org/2000/svg">
<g id="Rocket">
<path id="Subtract" d="M26.721 0.0321858C29.0741 -0.275318 31.0137 1.66342 30.7063 4.01656C30.2564 7.45674 29.021 13.3017 25.5276 17.0683C24.4164 18.2664 23.0729 19.3718 21.6926 20.3554L22.096 23.1816C22.2095 23.9767 21.9422 24.7797 21.3743 25.3476L16.7336 29.9882C15.2465 31.4748 12.7 30.6256 12.4026 28.5439L11.7835 24.2128L11.7903 24.2109C11.3942 24.0195 11.0252 23.7632 10.7053 23.4433L7.29419 20.0332C6.97386 19.7128 6.71706 19.343 6.52564 18.9462L6.52466 18.9541L2.19361 18.3349C0.11207 18.0372 -0.736646 15.4908 0.750249 14.0039L5.39087 9.36422C5.95872 8.79645 6.76097 8.52918 7.55591 8.64254L10.3811 9.04586C11.3648 7.66535 12.4709 6.3213 13.6692 5.20992C17.4357 1.71667 23.2807 0.482164 26.721 0.0321858ZM8.99927 26.3789C9.42631 25.9518 10.119 25.952 10.5461 26.3789C10.9731 26.806 10.9732 27.4987 10.5461 27.9257L8.48462 29.9873C8.05754 30.4143 7.36488 30.4142 6.93775 29.9873C6.51093 29.5601 6.51076 28.8674 6.93775 28.4404L8.99927 26.3789ZM5.90552 23.2851C6.33256 22.8581 7.02524 22.8583 7.4524 23.2851C7.87953 23.7123 7.87953 24.4049 7.4524 24.832L3.32837 28.956C2.90124 29.3831 2.20862 29.3831 1.7815 28.956C1.35468 28.5289 1.35451 27.8362 1.7815 27.4091L5.90552 23.2851ZM2.81177 20.1914C3.23876 19.7644 3.93147 19.7647 4.35865 20.1914C4.78578 20.6185 4.78578 21.3111 4.35865 21.7382L2.29712 23.7998C1.86998 24.2269 1.17737 24.2269 0.750249 23.7998C0.32358 23.3726 0.32331 22.6799 0.750249 22.2529L2.81177 20.1914ZM22.1467 8.59078C21.0077 7.45175 19.1617 7.45175 18.0227 8.59078C16.8837 9.72981 16.8837 11.5758 18.0227 12.7148C19.1617 13.8538 21.0077 13.8538 22.1467 12.7148C23.2858 11.5758 23.2858 9.72981 22.1467 8.59078Z" fill="var(--fill-0, #52CF39)"/>
</g>
</svg>
