<svg preserveAspectRatio="none" width="100%" height="100%" overflow="visible" style="display: block;" viewBox="0 0 28.9238 15.9229" fill="none" xmlns="http://www.w3.org/2000/svg">
<path id="Subtract" d="M28.9238 8.99512C28.9237 12.8208 25.8217 15.9228 21.9961 15.9229H6.92676C3.10122 15.9227 8.51229e-05 12.8207 0 8.99512V3.17969C0.403471 3.44377 0.848853 3.65405 1.32812 3.79785L12.1572 7.04688C13.6605 7.49776 15.2633 7.49785 16.7666 7.04688L27.5947 3.79785C28.0742 3.654 28.5202 3.44394 28.9238 3.17969V8.99512ZM14.4619 2.43359L28.8311 0.000976562C28.5064 0.80405 27.8335 1.44302 26.9668 1.70312L16.1377 4.95117C15.0443 5.27918 13.8785 5.27918 12.7852 4.95117L1.95703 1.70312C1.08987 1.44298 0.416377 0.803619 0.0917969 0L14.4619 2.43359Z" fill="var(--fill-0, #FFA755)"/>
</svg>
