<svg preserveAspectRatio="none" width="100%" height="100%" overflow="visible" style="display: block;" viewBox="0 0 29.167 11.6181" fill="none" xmlns="http://www.w3.org/2000/svg">
<path id="Subtract" d="M26.25 0C27.8608 0 29.167 1.30616 29.167 2.91699V5.33008C29.1669 6.61801 28.3215 7.75296 27.0879 8.12305L16.2598 11.3721C15.1664 11.7001 14.0006 11.7001 12.9072 11.3721L2.07812 8.12305C0.844782 7.75279 9.39754e-05 6.61783 0 5.33008V2.91699C0 1.30616 1.30616 0 2.91699 0H26.25ZM14.583 3.90625C13.9792 3.90638 13.4894 4.39616 13.4893 5V7.5C13.4893 8.10397 13.9791 8.59362 14.583 8.59375C15.1871 8.59375 15.6767 8.10405 15.6768 7.5V5C15.6766 4.39608 15.187 3.90625 14.583 3.90625Z" fill="var(--fill-0, #FFA755)"/>
</svg>
